<?xml version="1.0" standalone="no"?><!DOCTYPE svg PUBLIC "-//W3C//DTD SVG 1.1//EN" "http://www.w3.org/Graphics/SVG/1.1/DTD/svg11.dtd" ><svg xmlns="http://www.w3.org/2000/svg"><metadata></metadata><defs><font id="fonteditor" horiz-adv-x="769"><font-face font-family="DS-Digital" font-weight="700" font-stretch="normal" units-per-em="1100" panose-1="0 0 0 0 0 0 0 0 0 0" ascent="900" descent="-200" x-height="0" bbox="0 -187 710 900" underline-thickness="70" underline-position="-120" unicode-range="U+0021-007d" /><missing-glyph horiz-adv-x="550" d="M34 0 L34 900 L516 900 L516 0 L34 0 ZM482 34 L482 866 L68 866 L68 34 L482 34 Z" /><glyph glyph-name="exclam" unicode="!" d="M209 291 L209 0 L105 104 L105 265 L170 330 L209 291 ZM105 435 L105 595 L209 700 L209 409 L170 369 L105 435 ZM209 -140 L105 -140 L105 -47 L209 -47 L209 -140 Z" /><glyph glyph-name="quotedbl" unicode="&quot;" d="M151 561 L99 508 L47 561 L47 700 L151 700 L151 561 ZM293 561 L241 508 L188 561 L188 700 L293 700 L293 561 Z" /><glyph glyph-name="numbersign" unicode="#" d="M290 300 L237 248 L185 300 L185 353 L237 405 L290 353 L290 300 ZM408 229 L356 177 L309 177 L257 229 L309 281 L356 281 L408 229 ZM218 229 L166 177 L110 177 L58 229 L110 281 L166 281 L218 229 ZM290 78 L237 26 L185 78 L185 157 L237 209 L290 157 L290 78 ZM480 300 L428 248 L375 300 L375 353 L428 405 L480 353 L480 300 ZM607 229 L555 177 L499 177 L447 229 L499 281 L555 281 L607 229 ZM480 78 L428 26 L375 78 L375 157 L428 209 L480 157 L480 78 ZM290 496 L237 444 L185 496 L185 584 L237 637 L290 584 L290 496 ZM408 424 L356 372 L309 372 L257 424 L309 476 L356 476 L408 424 ZM218 424 L166 372 L110 372 L58 424 L110 476 L166 476 L218 424 ZM480 496 L428 444 L375 496 L375 584 L428 637 L480 584 L480 496 ZM607 424 L555 372 L499 372 L447 424 L499 476 L555 476 L607 424 Z" /><glyph glyph-name="dollar" unicode="$" d="M320 723 L216 723 L216 807 L268 859 L320 807 L320 723 ZM320 -108 L268 -160 L216 -108 L216 -23 L320 -23 L320 -108 ZM501 648 L449 595 L182 595 L130 648 L182 700 L449 700 L501 648 ZM501 124 L449 72 L397 124 L397 265 L462 330 L501 291 L501 124 ZM443 350 L391 298 L169 298 L117 350 L169 402 L391 402 L443 350 ZM162 435 L97 369 L58 409 L58 576 L110 628 L162 576 L162 435 ZM430 52 L378 0 L110 0 L58 52 L110 104 L378 104 L430 52 Z" /><glyph glyph-name="percent" unicode="%" d="M290 650 L237 598 L182 598 L130 650 L182 703 L237 703 L290 650 ZM290 423 L237 370 L182 370 L130 423 L182 475 L237 475 L290 423 ZM58 494 L110 445 L162 494 L162 578 L110 631 L58 578 L58 494 ZM257 494 L257 578 L309 631 L361 578 L361 494 L309 445 L257 494 ZM638 281 L586 229 L532 229 L479 281 L532 334 L586 334 L638 281 ZM638 59 L586 7 L532 7 L479 59 L532 111 L586 111 L638 59 ZM407 130 L459 81 L512 130 L512 210 L459 262 L407 210 L407 130 ZM606 130 L606 210 L658 262 L710 210 L710 130 L658 81 L606 130 ZM395 481 L531 716 L673 754 L472 406 L419 393 L395 481 ZM413 305 L199 -66 L161 76 L310 334 L400 359 L413 305 Z" /><glyph glyph-name="ampersand" unicode="&amp;" d="M430 648 L378 595 L182 595 L130 648 L182 700 L378 700 L430 648 ZM501 409 L462 369 L397 435 L397 477 L449 529 L501 477 L501 409 ZM501 124 L449 72 L397 124 L397 265 L462 330 L501 291 L501 124 ZM443 350 L391 298 L169 298 L117 350 L169 402 L391 402 L443 350 ZM162 435 L97 369 L58 409 L58 576 L110 628 L162 576 L162 435 ZM430 52 L378 0 L182 0 L130 52 L182 104 L378 104 L430 52 ZM162 124 L110 72 L58 124 L58 291 L97 330 L162 265 L162 124 ZM534 298 L482 350 L534 402 L586 350 L534 298 Z" /><glyph glyph-name="quotesingle" unicode="&#39;" d="M151 561 L99 508 L47 561 L47 700 L151 700 L151 561 Z" /><glyph glyph-name="parenleft" unicode="(" d="M151 435 L86 369 L47 409 L47 576 L99 628 L151 576 L151 435 ZM47 124 L99 72 L151 124 L151 265 L86 330 L47 291 L47 124 ZM171 595 L118 648 L171 700 L322 700 L217 595 L171 595 ZM171 0 L118 52 L171 104 L217 104 L322 0 L171 0 Z" /><glyph glyph-name="parenright" unicode=")" d="M227 648 L175 595 L128 595 L23 700 L175 700 L227 648 ZM299 409 L260 369 L194 435 L194 576 L247 628 L299 576 L299 409 ZM299 124 L247 72 L194 124 L194 265 L260 330 L299 291 L299 124 ZM227 52 L175 0 L23 0 L128 104 L175 104 L227 52 Z" /><glyph glyph-name="asterisk" unicode="*" d="M66 501 L47 572 L118 591 L187 553 L244 460 L140 460 L66 501 ZM416 299 L488 318 L468 389 L396 435 L291 435 L347 341 L416 299 ZM320 242 L267 190 L215 242 L215 322 L267 419 L320 326 L320 242 ZM320 566 L267 471 L215 566 L215 648 L267 700 L320 648 L320 566 ZM118 299 L47 318 L66 389 L140 430 L244 430 L187 336 L118 299 ZM396 463 L291 463 L347 556 L416 591 L488 572 L468 501 L396 463 Z" /><glyph glyph-name="plus" unicode="+" d="M311 422 L259 369 L206 422 L206 510 L259 562 L311 510 L311 422 ZM470 350 L418 298 L330 298 L278 350 L330 402 L418 402 L470 350 ZM239 350 L187 298 L99 298 L47 350 L99 402 L187 402 L239 350 ZM311 190 L259 138 L206 190 L206 278 L259 330 L311 278 L311 190 Z" /><glyph glyph-name="comma" unicode="," d="M151 -64 L99 -116 L47 -64 L47 75 L151 75 L151 -64 Z" /><glyph glyph-name="hyphen" unicode="-" d="M470 350 L418 298 L99 298 L47 350 L99 402 L418 402 L470 350 Z" /><glyph glyph-name="period" unicode="." d="M47 0 L47 104 L151 104 L151 0 L47 0 Z" /><glyph glyph-name="zero" unicode="0" d="M482 700 L378 595 L182 595 L78 700 L482 700 ZM482 0 L78 0 L182 104 L378 104 L482 0 ZM162 265 L162 124 L58 20 L58 291 L97 330 L162 265 ZM58 409 L58 680 L162 576 L162 435 L97 369 L58 409 ZM501 291 L501 20 L397 124 L397 265 L462 330 L501 291 ZM397 435 L397 576 L501 680 L501 409 L462 369 L397 435 Z" /><glyph glyph-name="one" unicode="1" d="M209 291 L209 20 L105 124 L105 265 L170 330 L209 291 ZM105 435 L105 576 L209 680 L209 409 L170 369 L105 435 Z" /><glyph glyph-name="two" unicode="2" d="M482 700 L378 595 L182 595 L78 700 L482 700 ZM482 0 L78 0 L182 104 L378 104 L482 0 ZM162 265 L162 124 L58 20 L58 291 L97 330 L162 265 ZM397 435 L397 576 L501 680 L501 409 L462 369 L397 435 ZM391 402 L443 350 L391 298 L169 298 L117 350 L169 402 L391 402 Z" /><glyph glyph-name="three" unicode="3" d="M482 700 L378 595 L182 595 L78 700 L482 700 ZM482 0 L78 0 L182 104 L378 104 L482 0 ZM501 291 L501 20 L397 124 L397 265 L462 330 L501 291 ZM397 435 L397 576 L501 680 L501 409 L462 369 L397 435 ZM391 402 L443 350 L391 298 L169 298 L117 350 L169 402 L391 402 Z" /><glyph glyph-name="four" unicode="4" d="M58 409 L58 680 L162 576 L162 435 L97 369 L58 409 ZM501 291 L501 20 L397 124 L397 265 L462 330 L501 291 ZM397 435 L397 576 L501 680 L501 409 L462 369 L397 435 ZM391 402 L443 350 L391 298 L169 298 L117 350 L169 402 L391 402 Z" /><glyph glyph-name="five" unicode="5" d="M482 700 L378 595 L182 595 L78 700 L482 700 ZM482 0 L78 0 L182 104 L378 104 L482 0 ZM58 409 L58 680 L162 576 L162 435 L97 369 L58 409 ZM501 291 L501 20 L397 124 L397 265 L462 330 L501 291 ZM391 402 L443 350 L391 298 L169 298 L117 350 L169 402 L391 402 Z" /><glyph glyph-name="six" unicode="6" d="M482 700 L378 595 L182 595 L78 700 L482 700 ZM482 0 L78 0 L182 104 L378 104 L482 0 ZM162 265 L162 124 L58 20 L58 291 L97 330 L162 265 ZM58 409 L58 680 L162 576 L162 435 L97 369 L58 409 ZM501 291 L501 20 L397 124 L397 265 L462 330 L501 291 ZM391 402 L443 350 L391 298 L169 298 L117 350 L169 402 L391 402 Z" /><glyph glyph-name="seven" unicode="7" d="M482 700 L378 595 L182 595 L78 700 L482 700 ZM501 291 L501 20 L397 124 L397 265 L462 330 L501 291 ZM397 435 L397 576 L501 680 L501 409 L462 369 L397 435 Z" /><glyph glyph-name="eight" unicode="8" d="M482 700 L378 595 L182 595 L78 700 L482 700 ZM482 0 L78 0 L182 104 L378 104 L482 0 ZM162 265 L162 124 L58 20 L58 291 L97 330 L162 265 ZM58 409 L58 680 L162 576 L162 435 L97 369 L58 409 ZM501 291 L501 20 L397 124 L397 265 L462 330 L501 291 ZM397 435 L397 576 L501 680 L501 409 L462 369 L397 435 ZM391 402 L443 350 L391 298 L169 298 L117 350 L169 402 L391 402 Z" /><glyph glyph-name="nine" unicode="9" d="M482 700 L378 595 L182 595 L78 700 L482 700 ZM482 0 L78 0 L182 104 L378 104 L482 0 ZM58 409 L58 680 L162 576 L162 435 L97 369 L58 409 ZM501 291 L501 20 L397 124 L397 265 L462 330 L501 291 ZM397 435 L397 576 L501 680 L501 409 L462 369 L397 435 ZM391 402 L443 350 L391 298 L169 298 L117 350 L169 402 L391 402 Z" /><glyph glyph-name="semicolon" unicode=";" d="M70 479 L70 583 L175 583 L175 479 L70 479 ZM175 -64 L122 -116 L70 -64 L70 75 L175 75 L175 -64 Z" /><glyph glyph-name="less" unicode="&lt;" d="M345 510 L194 363 L47 363 L271 584 L345 584 L345 510 ZM345 116 L271 116 L47 335 L194 335 L345 189 L345 116 Z" /><glyph glyph-name="equal" unicode="=" d="M470 439 L418 387 L99 387 L47 439 L99 492 L418 492 L470 439 ZM470 261 L418 208 L99 208 L47 261 L99 313 L418 313 L470 261 Z" /><glyph glyph-name="greater" unicode="&gt;" d="M345 363 L197 363 L47 510 L47 584 L121 584 L345 363 ZM345 335 L121 116 L47 116 L47 189 L197 335 L345 335 Z" /><glyph glyph-name="question" unicode="?" d="M501 409 L462 369 L397 435 L397 576 L449 628 L501 576 L501 409 ZM430 648 L378 595 L162 595 L58 700 L378 700 L430 648 ZM162 104 L58 0 L58 291 L97 330 L162 265 L162 104 ZM391 402 L443 350 L391 298 L169 298 L117 350 L169 402 L391 402 ZM162 -39 L58 -39 L58 -143 L162 -143 L162 -39 Z" /><glyph glyph-name="at" unicode="@" d="M618 523 L579 483 L513 549 L513 576 L618 680 L618 523 ZM598 700 L494 595 L182 595 L130 648 L182 700 L598 700 ZM559 464 L507 412 L333 412 L281 464 L333 516 L507 516 L559 464 ZM618 187 L513 291 L513 379 L579 444 L618 405 L618 187 ZM162 435 L97 369 L58 409 L58 576 L110 628 L162 576 L162 435 ZM598 167 L346 167 L294 219 L346 272 L494 272 L598 167 ZM326 291 L274 239 L221 291 L221 405 L261 444 L326 379 L326 291 ZM58 291 L97 330 L162 265 L162 124 L110 72 L58 124 L58 291 ZM182 0 L130 52 L182 104 L584 104 L637 52 L584 0 L182 0 Z" /><glyph glyph-name="A" unicode="a" d="M482 700 L378 595 L182 595 L78 700 L482 700 ZM162 265 L162 104 L58 0 L58 291 L97 330 L162 265 ZM58 409 L58 680 L162 576 L162 435 L97 369 L58 409 ZM501 291 L501 0 L397 104 L397 265 L462 330 L501 291 ZM397 435 L397 576 L501 680 L501 409 L462 369 L397 435 ZM391 402 L443 350 L391 298 L169 298 L117 350 L169 402 L391 402 Z" /><glyph glyph-name="B" unicode="b" d="M162 265 L162 124 L58 20 L58 291 L97 330 L162 265 ZM58 409 L58 680 L162 576 L162 435 L97 369 L58 409 ZM391 402 L443 350 L391 298 L169 298 L117 350 L169 402 L391 402 ZM78 0 L182 104 L378 104 L430 52 L378 0 L78 0 ZM501 409 L462 369 L397 435 L397 576 L449 628 L501 576 L501 409 ZM430 648 L378 595 L182 595 L78 700 L378 700 L430 648 ZM501 124 L449 72 L397 124 L397 265 L462 330 L501 291 L501 124 Z" /><glyph glyph-name="C" unicode="c" d="M182 0 L130 52 L182 104 L397 104 L501 0 L182 0 ZM501 700 L397 595 L182 595 L130 648 L182 700 L501 700 ZM162 435 L97 369 L58 409 L58 576 L110 628 L162 576 L162 435 ZM58 124 L110 72 L162 124 L162 265 L97 330 L58 291 L58 124 Z" /><glyph glyph-name="D" unicode="d" d="M162 265 L162 124 L58 20 L58 291 L97 330 L162 265 ZM58 409 L58 680 L162 576 L162 435 L97 369 L58 409 ZM78 0 L182 104 L378 104 L430 52 L378 0 L78 0 ZM501 409 L462 369 L397 435 L397 576 L449 628 L501 576 L501 409 ZM430 648 L378 595 L182 595 L78 700 L378 700 L430 648 ZM501 124 L449 72 L397 124 L397 265 L462 330 L501 291 L501 124 Z" /><glyph glyph-name="E" unicode="e" d="M501 700 L397 595 L182 595 L78 700 L501 700 ZM501 0 L78 0 L182 104 L397 104 L501 0 ZM162 265 L162 124 L58 20 L58 291 L97 330 L162 265 ZM58 409 L58 680 L162 576 L162 435 L97 369 L58 409 ZM391 402 L443 350 L391 298 L169 298 L117 350 L169 402 L391 402 Z" /><glyph glyph-name="F" unicode="f" d="M501 700 L397 595 L182 595 L78 700 L501 700 ZM162 265 L162 124 L58 20 L58 291 L97 330 L162 265 ZM58 409 L58 680 L162 576 L162 435 L97 369 L58 409 ZM391 402 L443 350 L391 298 L169 298 L117 350 L169 402 L391 402 Z" /><glyph glyph-name="G" unicode="g" d="M501 700 L397 595 L182 595 L130 648 L182 700 L501 700 ZM443 364 L391 312 L273 312 L221 364 L273 417 L391 417 L443 364 ZM162 449 L97 384 L58 423 L58 576 L110 628 L162 576 L162 449 ZM162 124 L110 72 L58 124 L58 306 L97 345 L162 280 L162 124 ZM378 0 L430 52 L378 104 L182 104 L130 52 L182 0 L378 0 ZM501 124 L449 72 L397 124 L397 280 L462 345 L501 306 L501 124 Z" /><glyph glyph-name="H" unicode="h" d="M162 265 L162 104 L58 0 L58 291 L97 330 L162 265 ZM58 409 L58 700 L162 595 L162 435 L97 369 L58 409 ZM501 291 L501 0 L397 104 L397 265 L462 330 L501 291 ZM397 435 L397 595 L501 700 L501 409 L462 369 L397 435 ZM391 402 L443 350 L391 298 L169 298 L117 350 L169 402 L391 402 Z" /><glyph glyph-name="I" unicode="i" d="M209 291 L209 0 L105 104 L105 265 L170 330 L209 291 ZM105 435 L105 595 L209 700 L209 409 L170 369 L105 435 Z" /><glyph glyph-name="J" unicode="j" d="M501 124 L449 72 L397 124 L397 265 L462 330 L501 291 L501 124 ZM58 124 L110 72 L162 124 L162 218 L97 284 L58 244 L58 124 ZM182 0 L130 52 L182 104 L378 104 L430 52 L378 0 L182 0 ZM397 435 L397 595 L501 700 L501 409 L462 369 L397 435 Z" /><glyph glyph-name="K" unicode="k" d="M162 265 L162 104 L58 0 L58 291 L97 330 L162 265 ZM58 409 L58 700 L162 595 L162 435 L97 369 L58 409 ZM501 291 L501 0 L397 104 L397 265 L462 330 L501 291 ZM391 402 L443 350 L391 298 L169 298 L117 350 L169 402 L391 402 ZM384 700 L458 700 L458 625 L262 430 L188 430 L188 505 L384 700 Z" /><glyph glyph-name="L" unicode="l" d="M501 0 L78 0 L182 104 L397 104 L501 0 ZM162 265 L162 124 L58 20 L58 291 L97 330 L162 265 ZM58 409 L58 700 L162 595 L162 435 L97 369 L58 409 Z" /><glyph glyph-name="M" unicode="m" d="M482 700 L378 595 L182 595 L78 700 L482 700 ZM162 265 L162 104 L58 0 L58 291 L97 330 L162 265 ZM58 409 L58 680 L162 576 L162 435 L97 369 L58 409 ZM501 291 L501 0 L397 104 L397 265 L462 330 L501 291 ZM397 435 L397 576 L501 680 L501 409 L462 369 L397 435 ZM231 519 L284 571 L336 519 L336 314 L284 261 L231 314 L231 519 Z" /><glyph glyph-name="N" unicode="n" d="M162 265 L162 104 L58 0 L58 291 L97 330 L162 265 ZM58 409 L58 700 L162 595 L162 435 L97 369 L58 409 ZM501 291 L501 0 L397 104 L397 265 L462 330 L501 291 ZM397 435 L397 595 L501 700 L501 409 L462 369 L397 435 ZM86 700 L238 700 L373 557 L373 482 L299 482 L86 700 Z" /><glyph glyph-name="O" unicode="o" d="M501 409 L462 369 L397 435 L397 576 L449 628 L501 576 L501 409 ZM430 648 L378 595 L182 595 L130 648 L182 700 L378 700 L430 648 ZM501 124 L449 72 L397 124 L397 265 L462 330 L501 291 L501 124 ZM162 435 L97 369 L58 409 L58 576 L110 628 L162 576 L162 435 ZM58 124 L110 72 L162 124 L162 265 L97 330 L58 291 L58 124 ZM182 0 L130 52 L182 104 L378 104 L430 52 L378 0 L182 0 Z" /><glyph glyph-name="P" unicode="p" d="M162 265 L162 104 L58 0 L58 291 L97 330 L162 265 ZM58 409 L58 680 L162 576 L162 435 L97 369 L58 409 ZM391 402 L443 350 L391 298 L169 298 L117 350 L169 402 L391 402 ZM501 409 L462 369 L397 435 L397 576 L449 628 L501 576 L501 409 ZM430 648 L378 595 L182 595 L78 700 L378 700 L430 648 Z" /><glyph glyph-name="Q" unicode="q" d="M501 423 L462 384 L397 449 L397 576 L449 628 L501 576 L501 423 ZM430 648 L378 595 L182 595 L130 648 L182 700 L378 700 L430 648 ZM501 218 L449 166 L397 218 L397 279 L462 344 L501 305 L501 218 ZM162 449 L97 384 L58 423 L58 576 L110 628 L162 576 L162 449 ZM58 124 L110 72 L162 124 L162 279 L97 344 L58 305 L58 124 ZM182 0 L130 52 L182 104 L284 104 L336 52 L284 0 L182 0 ZM303 124 L303 199 L378 199 L501 75 L501 0 L427 0 L303 124 Z" /><glyph glyph-name="R" unicode="r" d="M209 200 L209 274 L284 274 L484 75 L484 0 L409 0 L209 200 ZM162 265 L162 104 L58 0 L58 291 L97 330 L162 265 ZM58 409 L58 680 L162 576 L162 435 L97 369 L58 409 ZM391 402 L443 350 L391 298 L169 298 L117 350 L169 402 L391 402 ZM501 409 L462 369 L397 435 L397 576 L449 628 L501 576 L501 409 ZM430 648 L378 595 L182 595 L78 700 L378 700 L430 648 Z" /><glyph glyph-name="S" unicode="s" d="M501 648 L449 595 L182 595 L130 648 L182 700 L449 700 L501 648 ZM501 124 L449 72 L397 124 L397 265 L462 330 L501 291 L501 124 ZM162 435 L97 369 L58 409 L58 576 L110 628 L162 576 L162 435 ZM110 0 L58 52 L110 104 L378 104 L430 52 L378 0 L110 0 ZM391 402 L443 350 L391 298 L169 298 L117 350 L169 402 L391 402 Z" /><glyph glyph-name="T" unicode="t" d="M332 48 L280 -4 L228 48 L228 265 L293 330 L332 291 L332 48 ZM332 409 L293 369 L228 435 L228 515 L280 567 L332 515 L332 409 ZM525 648 L472 595 L87 595 L35 648 L87 700 L472 700 L525 648 Z" /><glyph glyph-name="U" unicode="u" d="M501 124 L449 72 L397 124 L397 265 L462 330 L501 291 L501 124 ZM58 124 L110 72 L162 124 L162 265 L97 330 L58 291 L58 124 ZM182 0 L130 52 L182 104 L378 104 L430 52 L378 0 L182 0 ZM501 409 L462 369 L397 435 L397 595 L501 700 L501 409 ZM58 700 L162 595 L162 435 L97 369 L58 409 L58 700 Z" /><glyph glyph-name="V" unicode="v" d="M501 419 L462 380 L397 446 L397 595 L501 700 L501 419 ZM162 446 L97 380 L58 419 L58 700 L162 595 L162 446 ZM462 341 L455 249 L269 50 L195 50 L195 124 L380 323 L462 341 ZM162 50 L110 -3 L58 50 L58 302 L97 341 L162 275 L162 50 Z" /><glyph glyph-name="W" unicode="w" d="M501 409 L462 369 L397 435 L397 595 L501 700 L501 409 ZM162 435 L97 369 L58 409 L58 700 L162 595 L162 435 ZM501 20 L397 124 L397 265 L462 330 L501 291 L501 20 ZM336 180 L284 128 L231 180 L231 386 L284 439 L336 386 L336 180 ZM482 0 L78 0 L182 104 L378 104 L482 0 ZM162 124 L58 20 L58 291 L97 330 L162 265 L162 124 Z" /><glyph glyph-name="X" unicode="x" d="M300 369 L300 484 L441 700 L501 700 L501 598 L353 369 L300 369 ZM208 369 L58 598 L58 700 L119 700 L261 484 L261 369 L208 369 ZM261 330 L261 215 L120 0 L58 0 L58 102 L208 330 L261 330 ZM353 330 L501 102 L501 0 L441 0 L300 216 L300 330 L353 330 Z" /><glyph glyph-name="Y" unicode="y" d="M501 409 L462 369 L397 435 L397 595 L501 700 L501 409 ZM58 409 L97 369 L162 435 L162 595 L58 700 L58 409 ZM149 0 L97 52 L149 104 L378 104 L430 52 L378 0 L149 0 ZM501 124 L449 72 L397 124 L397 265 L462 330 L501 291 L501 124 ZM391 402 L443 350 L391 298 L169 298 L117 350 L169 402 L391 402 Z" /><glyph glyph-name="Z" unicode="z" d="M501 648 L449 595 L162 595 L58 700 L449 700 L501 648 ZM449 494 L366 370 L273 360 L269 415 L375 571 L449 571 L449 494 ZM273 254 L188 128 L110 128 L110 200 L205 340 L261 345 L273 254 ZM489 0 L110 0 L58 52 L110 104 L385 104 L489 0 Z" /><glyph glyph-name="bracketleft" unicode="[" d="M322 700 L217 595 L171 595 L66 700 L322 700 ZM322 0 L66 0 L171 104 L217 104 L322 0 ZM151 265 L151 124 L47 20 L47 291 L86 330 L151 265 ZM47 409 L47 680 L151 576 L151 435 L86 369 L47 409 Z" /><glyph glyph-name="bracketright" unicode="]" d="M279 700 L175 595 L128 595 L23 700 L279 700 ZM299 409 L260 369 L194 435 L194 576 L299 680 L299 409 ZM299 20 L194 124 L194 265 L260 330 L299 291 L299 20 ZM279 0 L23 0 L128 104 L175 104 L279 0 Z" /><glyph glyph-name="asciicircum" unicode="^" d="M389 431 L268 552 L268 700 L463 505 L463 431 L389 431 ZM47 431 L47 505 L241 700 L241 552 L120 431 L47 431 Z" /><glyph glyph-name="underscore" unicode="_" d="M518 -135 L466 -187 L52 -187 L0 -135 L52 -83 L466 -83 L518 -135 Z" /><glyph glyph-name="a" unicode="a" d="M482 700 L378 595 L182 595 L78 700 L482 700 ZM162 265 L162 104 L58 0 L58 291 L97 330 L162 265 ZM58 409 L58 680 L162 576 L162 435 L97 369 L58 409 ZM501 291 L501 0 L397 104 L397 265 L462 330 L501 291 ZM397 435 L397 576 L501 680 L501 409 L462 369 L397 435 ZM391 402 L443 350 L391 298 L169 298 L117 350 L169 402 L391 402 Z" /><glyph glyph-name="b" unicode="b" d="M162 265 L162 124 L58 20 L58 291 L97 330 L162 265 ZM58 409 L58 680 L162 576 L162 435 L97 369 L58 409 ZM391 402 L443 350 L391 298 L169 298 L117 350 L169 402 L391 402 ZM78 0 L182 104 L378 104 L430 52 L378 0 L78 0 ZM501 409 L462 369 L397 435 L397 576 L449 628 L501 576 L501 409 ZM430 648 L378 595 L182 595 L78 700 L378 700 L430 648 ZM501 124 L449 72 L397 124 L397 265 L462 330 L501 291 L501 124 Z" /><glyph glyph-name="c" unicode="c" d="M182 0 L130 52 L182 104 L397 104 L501 0 L182 0 ZM501 700 L397 595 L182 595 L130 648 L182 700 L501 700 ZM162 435 L97 369 L58 409 L58 576 L110 628 L162 576 L162 435 ZM58 124 L110 72 L162 124 L162 265 L97 330 L58 291 L58 124 Z" /><glyph glyph-name="d" unicode="d" d="M162 265 L162 124 L58 20 L58 291 L97 330 L162 265 ZM58 409 L58 680 L162 576 L162 435 L97 369 L58 409 ZM78 0 L182 104 L378 104 L430 52 L378 0 L78 0 ZM501 409 L462 369 L397 435 L397 576 L449 628 L501 576 L501 409 ZM430 648 L378 595 L182 595 L78 700 L378 700 L430 648 ZM501 124 L449 72 L397 124 L397 265 L462 330 L501 291 L501 124 Z" /><glyph glyph-name="e" unicode="e" d="M501 700 L397 595 L182 595 L78 700 L501 700 ZM501 0 L78 0 L182 104 L397 104 L501 0 ZM162 265 L162 124 L58 20 L58 291 L97 330 L162 265 ZM58 409 L58 680 L162 576 L162 435 L97 369 L58 409 ZM391 402 L443 350 L391 298 L169 298 L117 350 L169 402 L391 402 Z" /><glyph glyph-name="f" unicode="f" d="M501 700 L397 595 L182 595 L78 700 L501 700 ZM162 265 L162 124 L58 20 L58 291 L97 330 L162 265 ZM58 409 L58 680 L162 576 L162 435 L97 369 L58 409 ZM391 402 L443 350 L391 298 L169 298 L117 350 L169 402 L391 402 Z" /><glyph glyph-name="g" unicode="g" d="M501 700 L397 595 L182 595 L130 648 L182 700 L501 700 ZM443 364 L391 312 L273 312 L221 364 L273 417 L391 417 L443 364 ZM162 449 L97 384 L58 423 L58 576 L110 628 L162 576 L162 449 ZM162 124 L110 72 L58 124 L58 306 L97 345 L162 280 L162 124 ZM378 0 L430 52 L378 104 L182 104 L130 52 L182 0 L378 0 ZM501 124 L449 72 L397 124 L397 280 L462 345 L501 306 L501 124 Z" /><glyph glyph-name="h" unicode="h" d="M162 265 L162 104 L58 0 L58 291 L97 330 L162 265 ZM58 409 L58 700 L162 595 L162 435 L97 369 L58 409 ZM501 291 L501 0 L397 104 L397 265 L462 330 L501 291 ZM397 435 L397 595 L501 700 L501 409 L462 369 L397 435 ZM391 402 L443 350 L391 298 L169 298 L117 350 L169 402 L391 402 Z" /><glyph glyph-name="i" unicode="i" d="M209 291 L209 0 L105 104 L105 265 L170 330 L209 291 ZM105 435 L105 595 L209 700 L209 409 L170 369 L105 435 Z" /><glyph glyph-name="j" unicode="j" d="M501 124 L449 72 L397 124 L397 265 L462 330 L501 291 L501 124 ZM58 124 L110 72 L162 124 L162 218 L97 284 L58 244 L58 124 ZM182 0 L130 52 L182 104 L378 104 L430 52 L378 0 L182 0 ZM397 435 L397 595 L501 700 L501 409 L462 369 L397 435 Z" /><glyph glyph-name="k" unicode="k" d="M162 265 L162 104 L58 0 L58 291 L97 330 L162 265 ZM58 409 L58 700 L162 595 L162 435 L97 369 L58 409 ZM501 291 L501 0 L397 104 L397 265 L462 330 L501 291 ZM391 402 L443 350 L391 298 L169 298 L117 350 L169 402 L391 402 ZM384 700 L458 700 L458 625 L262 430 L188 430 L188 505 L384 700 Z" /><glyph glyph-name="l" unicode="l" d="M501 0 L78 0 L182 104 L397 104 L501 0 ZM162 265 L162 124 L58 20 L58 291 L97 330 L162 265 ZM58 409 L58 700 L162 595 L162 435 L97 369 L58 409 Z" /><glyph glyph-name="m" unicode="m" d="M482 700 L378 595 L182 595 L78 700 L482 700 ZM162 265 L162 104 L58 0 L58 291 L97 330 L162 265 ZM58 409 L58 680 L162 576 L162 435 L97 369 L58 409 ZM501 291 L501 0 L397 104 L397 265 L462 330 L501 291 ZM397 435 L397 576 L501 680 L501 409 L462 369 L397 435 ZM231 519 L284 571 L336 519 L336 314 L284 261 L231 314 L231 519 Z" /><glyph glyph-name="n" unicode="n" d="M162 265 L162 104 L58 0 L58 291 L97 330 L162 265 ZM58 409 L58 700 L162 595 L162 435 L97 369 L58 409 ZM501 291 L501 0 L397 104 L397 265 L462 330 L501 291 ZM397 435 L397 595 L501 700 L501 409 L462 369 L397 435 ZM86 700 L238 700 L373 557 L373 482 L299 482 L86 700 Z" /><glyph glyph-name="o" unicode="o" d="M501 409 L462 369 L397 435 L397 576 L449 628 L501 576 L501 409 ZM430 648 L378 595 L182 595 L130 648 L182 700 L378 700 L430 648 ZM501 124 L449 72 L397 124 L397 265 L462 330 L501 291 L501 124 ZM162 435 L97 369 L58 409 L58 576 L110 628 L162 576 L162 435 ZM58 124 L110 72 L162 124 L162 265 L97 330 L58 291 L58 124 ZM182 0 L130 52 L182 104 L378 104 L430 52 L378 0 L182 0 Z" /><glyph glyph-name="p" unicode="p" d="M162 265 L162 104 L58 0 L58 291 L97 330 L162 265 ZM58 409 L58 680 L162 576 L162 435 L97 369 L58 409 ZM391 402 L443 350 L391 298 L169 298 L117 350 L169 402 L391 402 ZM501 409 L462 369 L397 435 L397 576 L449 628 L501 576 L501 409 ZM430 648 L378 595 L182 595 L78 700 L378 700 L430 648 Z" /><glyph glyph-name="q" unicode="q" d="M501 423 L462 384 L397 449 L397 576 L449 628 L501 576 L501 423 ZM430 648 L378 595 L182 595 L130 648 L182 700 L378 700 L430 648 ZM501 218 L449 166 L397 218 L397 279 L462 344 L501 305 L501 218 ZM162 449 L97 384 L58 423 L58 576 L110 628 L162 576 L162 449 ZM58 124 L110 72 L162 124 L162 279 L97 344 L58 305 L58 124 ZM182 0 L130 52 L182 104 L284 104 L336 52 L284 0 L182 0 ZM303 124 L303 199 L378 199 L501 75 L501 0 L427 0 L303 124 Z" /><glyph glyph-name="r" unicode="r" d="M209 200 L209 274 L284 274 L484 75 L484 0 L409 0 L209 200 ZM162 265 L162 104 L58 0 L58 291 L97 330 L162 265 ZM58 409 L58 680 L162 576 L162 435 L97 369 L58 409 ZM391 402 L443 350 L391 298 L169 298 L117 350 L169 402 L391 402 ZM501 409 L462 369 L397 435 L397 576 L449 628 L501 576 L501 409 ZM430 648 L378 595 L182 595 L78 700 L378 700 L430 648 Z" /><glyph glyph-name="s" unicode="s" d="M501 648 L449 595 L182 595 L130 648 L182 700 L449 700 L501 648 ZM501 124 L449 72 L397 124 L397 265 L462 330 L501 291 L501 124 ZM162 435 L97 369 L58 409 L58 576 L110 628 L162 576 L162 435 ZM110 0 L58 52 L110 104 L378 104 L430 52 L378 0 L110 0 ZM391 402 L443 350 L391 298 L169 298 L117 350 L169 402 L391 402 Z" /><glyph glyph-name="t" unicode="t" d="M332 48 L280 -4 L228 48 L228 265 L293 330 L332 291 L332 48 ZM332 409 L293 369 L228 435 L228 515 L280 567 L332 515 L332 409 ZM525 648 L472 595 L87 595 L35 648 L87 700 L472 700 L525 648 Z" /><glyph glyph-name="u" unicode="u" d="M501 124 L449 72 L397 124 L397 265 L462 330 L501 291 L501 124 ZM58 124 L110 72 L162 124 L162 265 L97 330 L58 291 L58 124 ZM182 0 L130 52 L182 104 L378 104 L430 52 L378 0 L182 0 ZM501 409 L462 369 L397 435 L397 595 L501 700 L501 409 ZM58 700 L162 595 L162 435 L97 369 L58 409 L58 700 Z" /><glyph glyph-name="v" unicode="v" d="M501 419 L462 380 L397 446 L397 595 L501 700 L501 419 ZM162 446 L97 380 L58 419 L58 700 L162 595 L162 446 ZM462 341 L455 249 L269 50 L195 50 L195 124 L380 323 L462 341 ZM162 50 L110 -3 L58 50 L58 302 L97 341 L162 275 L162 50 Z" /><glyph glyph-name="w" unicode="w" d="M501 409 L462 369 L397 435 L397 595 L501 700 L501 409 ZM162 435 L97 369 L58 409 L58 700 L162 595 L162 435 ZM501 20 L397 124 L397 265 L462 330 L501 291 L501 20 ZM336 180 L284 128 L231 180 L231 386 L284 439 L336 386 L336 180 ZM482 0 L78 0 L182 104 L378 104 L482 0 ZM162 124 L58 20 L58 291 L97 330 L162 265 L162 124 Z" /><glyph glyph-name="x" unicode="x" d="M300 369 L300 484 L441 700 L501 700 L501 598 L353 369 L300 369 ZM208 369 L58 598 L58 700 L119 700 L261 484 L261 369 L208 369 ZM261 330 L261 215 L120 0 L58 0 L58 102 L208 330 L261 330 ZM353 330 L501 102 L501 0 L441 0 L300 216 L300 330 L353 330 Z" /><glyph glyph-name="y" unicode="y" d="M501 409 L462 369 L397 435 L397 595 L501 700 L501 409 ZM58 409 L97 369 L162 435 L162 595 L58 700 L58 409 ZM149 0 L97 52 L149 104 L378 104 L430 52 L378 0 L149 0 ZM501 124 L449 72 L397 124 L397 265 L462 330 L501 291 L501 124 ZM391 402 L443 350 L391 298 L169 298 L117 350 L169 402 L391 402 Z" /><glyph glyph-name="z" unicode="z" d="M501 648 L449 595 L162 595 L58 700 L449 700 L501 648 ZM449 494 L366 370 L273 360 L269 415 L375 571 L449 571 L449 494 ZM273 254 L188 128 L110 128 L110 200 L205 340 L261 345 L273 254 ZM489 0 L110 0 L58 52 L110 104 L385 104 L489 0 Z" /><glyph glyph-name="braceleft" unicode="{" d="M409 700 L304 595 L257 595 L205 648 L257 700 L409 700 ZM238 409 L199 369 L134 435 L134 576 L186 628 L238 576 L238 409 ZM179 350 L127 298 L76 298 L23 350 L76 402 L127 402 L179 350 ZM238 124 L186 72 L134 124 L134 265 L199 330 L238 291 L238 124 ZM409 0 L257 0 L205 52 L257 104 L304 104 L409 0 Z" /><glyph glyph-name="braceright" unicode="}" d="M227 648 L175 595 L128 595 L23 700 L175 700 L227 648 ZM299 435 L234 369 L194 409 L194 576 L247 628 L299 576 L299 435 ZM409 350 L356 298 L305 298 L253 350 L305 402 L356 402 L409 350 ZM299 124 L247 72 L194 124 L194 291 L234 330 L299 265 L299 124 ZM227 52 L175 0 L23 0 L128 104 L175 104 L227 52 Z" /></font>
</defs>
</svg>
